<svg width="64" height="64" viewBox="0 0 64 64" fill="none" xmlns="http://www.w3.org/2000/svg">
  <defs>
    <linearGradient id="iconGradient" x1="0%" y1="0%" x2="100%" y2="100%">
      <stop offset="0%" style="stop-color:#3b82f6;stop-opacity:1" />
      <stop offset="50%" style="stop-color:#06b6d4;stop-opacity:1" />
      <stop offset="100%" style="stop-color:#0891b2;stop-opacity:1" />
    </linearGradient>
  </defs>
  
  <!-- Gota izquierda -->
  <path 
    d="M 22 12 C 22 12, 14 20, 14 28 C 14 35, 18 40, 24 40 C 30 40, 34 35, 34 28 C 34 20, 26 12, 22 12 Z"
    fill="url(#iconGradient)"
  />
  
  <!-- Gota derecha -->
  <path 
    d="M 42 20 C 42 20, 34 28, 34 36 C 34 43, 38 48, 44 48 C 50 48, 54 43, 54 36 C 54 28, 46 20, 42 20 Z"
    fill="url(#iconGradient)"
  />
  
  <!-- Brillo -->
  <ellipse cx="20" cy="20" rx="3" ry="5" fill="white" opacity="0.4"/>
  <ellipse cx="40" cy="28" rx="3" ry="5" fill="white" opacity="0.4"/>
</svg>
